REM DIRINDEX 1\2,1\3,1\4
REM DIRNAME folder01,folder02,folder03,folder04
TITLE ""
FILE "Track05.mp3" MP3
  TRACK 01 AUDIO
    TITLE "0:"
    INDEX 01 00:00:00
  TRACK 02 AUDIO
    TITLE "4:cjc153_0217"
    INDEX 01 00:00:05
  TRACK 03 AUDIO
    TITLE "0:"
    INDEX 01 00:01:52
  TRACK 04 AUDIO
    TITLE "2:cjc153_0218"
    INDEX 01 00:02:34
  TRACK 05 AUDIO
    TITLE "0:"
    INDEX 01 00:03:33
  TRACK 06 AUDIO
    TITLE "3:cjc153_0219"
    INDEX 01 00:03:59
  TRACK 07 AUDIO
    TITLE "0:"
    INDEX 01 00:04:62
  TRACK 08 AUDIO
    TITLE "2:cjc153_0220"
    INDEX 01 00:05:26
  TRACK 09 AUDIO
    TITLE "0:"
    INDEX 01 00:06:22
  TRACK 10 AUDIO
    TITLE "3:cjc153_0221"
    INDEX 01 00:06:49
  TRACK 11 AUDIO
    TITLE "0:"
    INDEX 01 00:07:47
  TRACK 12 AUDIO
    TITLE "2:cjc153_0222"
    INDEX 01 00:08:11
  TRACK 13 AUDIO
    TITLE "0:"
    INDEX 01 00:09:10
  TRACK 14 AUDIO
    TITLE "3:cjc153_0223"
    INDEX 01 00:09:36
  TRACK 15 AUDIO
    TITLE "0:"
    INDEX 01 00:10:37
  TRACK 16 AUDIO
    TITLE "2:cjc153_0224"
    INDEX 01 00:11:01
  TRACK 17 AUDIO
    TITLE "0:"
    INDEX 01 00:12:03
  TRACK 18 AUDIO
    TITLE "3:cjc153_0225"
    INDEX 01 00:12:28
  TRACK 19 AUDIO
    TITLE "0:"
    INDEX 01 00:13:30
  TRACK 20 AUDIO
    TITLE "2:cjc153_0226"
    INDEX 01 00:13:71
  TRACK 21 AUDIO
    TITLE "0:"
    INDEX 01 00:14:70
  TRACK 22 AUDIO
    TITLE "3:cjc153_0227"
    INDEX 01 00:15:21
  TRACK 23 AUDIO
    TITLE "0:"
    INDEX 01 00:16:24
  TRACK 24 AUDIO
    TITLE "2:cjc153_0228"
    INDEX 01 00:16:63
  TRACK 25 AUDIO
    TITLE "0:"
    INDEX 01 00:17:63
  TRACK 26 AUDIO
    TITLE "3:cjc153_0229"
    INDEX 01 00:18:17
  TRACK 27 AUDIO
    TITLE "0:"
    INDEX 01 00:19:22
  TRACK 28 AUDIO
    TITLE "2:cjc153_0230"
    INDEX 01 00:19:62
  TRACK 29 AUDIO
    TITLE "0:"
    INDEX 01 00:20:65
  TRACK 30 AUDIO
    TITLE "3:cjc153_0231"
    INDEX 01 00:21:15
  TRACK 31 AUDIO
    TITLE "0:"
    INDEX 01 00:22:19
  TRACK 32 AUDIO
    TITLE "2:cjc153_0232"
    INDEX 01 00:22:64
  TRACK 33 AUDIO
    TITLE "0:"
    INDEX 01 00:23:57
  TRACK 34 AUDIO
    TITLE "3:cjc153_0233"
    INDEX 01 00:24:08
  TRACK 35 AUDIO
    TITLE "0:"
    INDEX 01 00:25:11
  TRACK 36 AUDIO
    TITLE "2:cjc153_0234"
    INDEX 01 00:25:48
  TRACK 37 AUDIO
    TITLE "0:"
    INDEX 01 00:26:52
  TRACK 38 AUDIO
    TITLE "3:cjc153_0235"
    INDEX 01 00:27:00
  TRACK 39 AUDIO
    TITLE "0:"
    INDEX 01 00:28:06
  TRACK 40 AUDIO
    TITLE "2:cjc153_0236"
    INDEX 01 00:28:43
  TRACK 41 AUDIO
    TITLE "0:"
    INDEX 01 00:29:34
  TRACK 42 AUDIO
    TITLE "3:cjc153_0237"
    INDEX 01 00:29:58
  TRACK 43 AUDIO
    TITLE "0:"
    INDEX 01 00:30:50
  TRACK 44 AUDIO
    TITLE "2:cjc153_0238"
    INDEX 01 00:31:14
  TRACK 45 AUDIO
    TITLE "0:"
    INDEX 01 00:32:19
  TRACK 46 AUDIO
    TITLE "3:cjc153_0239"
    INDEX 01 00:32:45
  TRACK 47 AUDIO
    TITLE "0:"
    INDEX 01 00:33:48
  TRACK 48 AUDIO
    TITLE "2:cjc153_0240"
    INDEX 01 00:34:14
  TRACK 49 AUDIO
    TITLE "0:"
    INDEX 01 00:35:21
  TRACK 50 AUDIO
    TITLE "3:cjc153_0241"
    INDEX 01 00:35:47
  TRACK 51 AUDIO
    TITLE "0:"
    INDEX 01 00:36:52
  TRACK 52 AUDIO
    TITLE "2:cjc153_0242"
    INDEX 01 00:37:16
  TRACK 53 AUDIO
    TITLE "0:"
    INDEX 01 00:38:20
  TRACK 54 AUDIO
    TITLE "3:cjc153_0243"
    INDEX 01 00:38:49
  TRACK 55 AUDIO
    TITLE "0:"
    INDEX 01 00:39:60
  TRACK 56 AUDIO
    TITLE "2:cjc153_0244"
    INDEX 01 00:40:23
  TRACK 57 AUDIO
    TITLE "0:"
    INDEX 01 00:41:18
  TRACK 58 AUDIO
    TITLE "3:cjc153_0245"
    INDEX 01 00:41:44
  TRACK 59 AUDIO
    TITLE "0:"
    INDEX 01 00:42:45
  TRACK 60 AUDIO
    TITLE "2:cjc153_0246"
    INDEX 01 00:43:07
  TRACK 61 AUDIO
    TITLE "0:"
    INDEX 01 00:44:05
  TRACK 62 AUDIO
    TITLE "3:cjc153_0247"
    INDEX 01 00:44:32
  TRACK 63 AUDIO
    TITLE "0:"
    INDEX 01 00:45:35
  TRACK 64 AUDIO
    TITLE "2:cjc153_0248"
    INDEX 01 00:45:73
  TRACK 65 AUDIO
    TITLE "0:"
    INDEX 01 00:47:05
  TRACK 66 AUDIO
    TITLE "3:cjc153_0249"
    INDEX 01 00:47:32
  TRACK 67 AUDIO
    TITLE "0:"
    INDEX 01 00:48:44
  TRACK 68 AUDIO
    TITLE "2:cjc153_0250"
    INDEX 01 00:49:08
  TRACK 69 AUDIO
    TITLE "0:"
    INDEX 01 00:50:11
  TRACK 70 AUDIO
    TITLE "3:cjc153_0251"
    INDEX 01 00:50:39
  TRACK 71 AUDIO
    TITLE "0:"
    INDEX 01 00:51:46
  TRACK 72 AUDIO
    TITLE "2:cjc153_0252"
    INDEX 01 00:52:10
  TRACK 73 AUDIO
    TITLE "0:"
    INDEX 01 00:53:15
  TRACK 74 AUDIO
    TITLE "3:cjc153_0253"
    INDEX 01 00:53:43
  TRACK 75 AUDIO
    TITLE "0:"
    INDEX 01 00:54:52
